<?xml version="1.0" encoding="utf-8"?>
<!-- Generator: Adobe Illustrator 19.2.1, SVG Export Plug-In . SVG Version: 6.00 Build 0)  -->
<svg version="1.1" id="github" xmlns="http://www.w3.org/2000/svg" xmlns:xlink="http://www.w3.org/1999/xlink" x="0px" y="0px"
	 viewBox="0 0 100 100" style="enable-background:new 0 0 100 100;" xml:space="preserve">
<style type="text/css">
	.st0{fill:#00FEFF;}
	.st1{fill:#FFFFFF;}
</style>
<circle class="st0" cx="50" cy="50" r="47.5"/>
<circle class="st1" cx="50" cy="50" r="34.8"/>
<g>
	<path class="st0" d="M50,88.7c-21.5,0-38.7-17.3-38.7-38.8c0-21.6,17.9-39,39.5-38.6c21,0.4,38.3,17.9,37.9,39.5
		C88.2,71.8,71,88.8,50,88.7z M63.4,31.2c0-3.4,0-6.7,0-10.1c-2.4,0-4.7,0-7,0c-1.9,0-3.8,0-5.7,0.4c-3.9,0.7-6.8,2.9-7.9,6.8
		c-0.3,1.2-0.5,2.5-0.5,3.8c-0.1,2.7,0,5.4,0,8.2c-2,0-3.9,0-5.8,0c0,3.3,0,6.4,0,9.7c1.9,0,3.8,0,5.8,0c0,9.7,0,19.3,0,29
		c4,0,7.9,0,11.9,0c0-9.7,0-19.3,0-29c0.5,0,0.8,0,1.1,0c2.1,0,4.1,0,6.2,0c0.6,0,0.8-0.2,0.9-0.8c0.1-1.2,0.3-2.5,0.5-3.7
		c0.2-1.7,0.3-3.5,0.5-5.3c-3.1,0-6.1,0-9.1,0c0-2.1,0-4,0-6s1.1-3,3.1-3C59.4,31.2,61.4,31.2,63.4,31.2z"/>
</g>
<rect x="-215" y="-135" class="st0" width="71" height="71"/>
</svg>
